<?xml version="1.0" standalone="no"?><!DOCTYPE svg PUBLIC "-//W3C//DTD SVG 1.1//EN" "http://www.w3.org/Graphics/SVG/1.1/DTD/svg11.dtd"><svg t="1723885055889" class="icon" viewBox="0 0 1040 1024" version="1.1" xmlns="http://www.w3.org/2000/svg" p-id="4607" xmlns:xlink="http://www.w3.org/1999/xlink" width="203.125" height="200"><path d="M1016.246154 512c0 278.449231-225.673846 504.123077-504.123077 504.123077S8 790.449231 8 512 233.673846 7.876923 512.123077 7.876923s504.123077 225.673846 504.123077 504.123077" fill="#5A89FF" p-id="4608"></path><path d="M512.123077 764.061538c-138.948923 0-252.061538-113.112615-252.061539-252.061538s113.112615-252.061538 252.061539-252.061538 252.061538 113.112615 252.061538 252.061538-113.112615 252.061538-252.061538 252.061538z m0-456.861538c-112.955077 0-204.8 91.844923-204.8 204.8s91.844923 204.8 204.8 204.8 204.8-91.844923 204.8-204.8-91.844923-204.8-204.8-204.8z" fill="#FFFFFF" p-id="4609"></path><path d="M512.201846 764.061538c-22.449231 0-44.898462-2.993231-66.56-8.900923a252.526277 252.526277 0 0 1-106.023384-59.392 23.567754 23.567754 0 0 1-1.024-33.398153L488.492308 502.626462V283.569231c0-13.075692 10.555077-23.630769 23.630769-23.630769 40.96 0 81.762462 10.161231 117.917538 29.302153a252.849231 252.849231 0 0 1 90.505847 81.053539c23.000615 33.870769 37.572923 73.334154 42.062769 114.057846a253.321846 253.321846 0 0 1-16.147693 120.438154 252.534154 252.534154 0 0 1-70.656 98.855384 253.274585 253.274585 0 0 1-108.701538 54.35077c-18.038154 4.017231-36.470154 6.065231-54.902154 6.06523z m-122.092308-87.591384c20.401231 15.123692 43.480615 26.387692 67.977847 33.083077 32.059077 8.743385 66.244923 9.609846 98.697846 2.363077 32.452923-7.246769 63.015385-22.528 88.300307-44.11077a206.454154 206.454154 0 0 0 57.42277-80.344615c12.288-30.956308 16.777846-64.748308 13.154461-97.831385A204.563692 204.563692 0 0 0 681.476923 396.996923a204.563692 204.563692 0 0 0-73.570461-65.851077 206.414769 206.414769 0 0 0-72.231385-22.449231V512c0 5.986462-2.284308 11.815385-6.380308 16.147692L390.109538 676.470154zM512.123077 512z" fill="#FFFFFF" p-id="4610"></path><path d="M512.123077 866.461538c-64.196923 0-127.054769-17.329231-181.878154-50.176L354.584615 775.798154c47.419077 28.435692 101.927385 43.401846 157.538462 43.401846 169.353846 0 307.2-137.846154 307.2-307.2S681.476923 204.8 512.123077 204.8v-47.261538c195.426462 0 354.461538 159.035077 354.461538 354.461538s-159.035077 354.461538-354.461538 354.461538z" fill="#FFFFFF" p-id="4611"></path><path d="M388.297846 760.674462L280.620308 748.307692l43.165538 99.485539z" fill="#FFFFFF" p-id="4612"></path></svg>